<svg width="189" height="188" viewBox="0 0 189 188" fill="none" xmlns="http://www.w3.org/2000/svg">
<g opacity="0.5">
<rect x="102.402" y="161.598" width="106.15" height="106.15" rx="53.0752" transform="rotate(-135 102.402 161.598)" fill="#A47864"/>
</g>
<g opacity="0.7">
<rect x="108.02" y="155.98" width="106.15" height="106.15" rx="53.0752" transform="rotate(-135 108.02 155.98)" fill="#A47864"/>
</g>
<rect x="113.637" y="150.363" width="106.15" height="106.15" rx="53.0752" transform="rotate(-135 113.637 150.363)" fill="#A47864"/>
<path d="M92.3594 80.7012L134.759 38.4805L110.733 73.2232H132.753L92.3594 112.154L114.243 80.7012H92.3594Z" fill="white"/>
<rect x="33.8809" y="158.248" width="4.20993" height="16.8635" rx="2.10496" transform="rotate(-135 33.8809 158.248)" fill="#A47864"/>
<rect x="47.9316" y="144.197" width="4.20993" height="43.0014" rx="2.10496" transform="rotate(-135 47.9316 144.197)" fill="#A47864"/>
<rect x="73.4512" y="154.83" width="4.20993" height="41.1972" rx="2.10496" transform="rotate(-135 73.4512 154.83)" fill="#A47864"/>
<rect x="37.0898" y="118.469" width="4.20993" height="41.1972" rx="2.10496" transform="rotate(-135 37.0898 118.469)" fill="#A47864"/>
<rect x="113.637" y="150.363" width="4.20993" height="54.1276" rx="2.10496" transform="rotate(-135 113.637 150.363)" fill="#A47864"/>
<rect x="41.5527" y="78.2803" width="4.20993" height="54.1276" rx="2.10496" transform="rotate(-135 41.5527 78.2803)" fill="#A47864"/>
</svg>
