<svg width="40" height="40" viewBox="0 0 40 40" fill="none" xmlns="http://www.w3.org/2000/svg">
<rect width="40" height="40" rx="20" fill="#ffffff"/>
<g clip-path="url(#clip0_214_27485)">
<path d="M30.3139 18.463C30.2284 15.8543 29.1506 13.3766 27.3004 11.5356C25.3492 9.58414 22.7561 8.50977 19.9991 8.50977C14.4307 8.50977 9.88086 12.9419 9.68473 18.463C9.25537 18.6532 8.89039 18.9638 8.634 19.3573C8.37761 19.7507 8.24083 20.21 8.24023 20.6796V23.4029C8.24093 24.046 8.4967 24.6625 8.95141 25.1172C9.40613 25.5719 10.0227 25.8277 10.6657 25.8284C11.0818 25.8279 11.4807 25.6624 11.7749 25.3682C12.0691 25.074 12.2346 24.6751 12.2351 24.259V19.8231C12.2351 19.0105 11.6119 18.3479 10.8195 18.2691C11.112 13.459 15.1162 9.63477 19.9991 9.63477C22.4561 9.63477 24.7665 10.5925 26.5054 12.3314C28.1021 13.9281 29.0366 16.0094 29.1772 18.2695C28.3856 18.349 27.7635 19.0113 27.7635 19.8231V24.2586C27.7635 25.078 28.3965 25.7448 29.1982 25.8141V26.935C29.1975 27.5419 28.9561 28.1238 28.5269 28.5529C28.0977 28.9821 27.5158 29.2234 26.9089 29.224H25.2135C25.0992 28.8908 24.8834 28.6017 24.5964 28.3974C24.3094 28.193 23.9657 28.0837 23.6134 28.0848H21.8659C21.615 28.0848 21.3742 28.138 21.1537 28.2408C20.8585 28.3772 20.6084 28.5952 20.433 28.8691C20.2576 29.1429 20.1641 29.4613 20.1637 29.7865C20.1637 30.2418 20.3411 30.6693 20.6625 30.9891C20.82 31.1479 21.0075 31.2739 21.2141 31.3596C21.4206 31.4453 21.6422 31.4892 21.8659 31.4886H23.6134C24.3379 31.4886 24.9765 31.0203 25.2146 30.349H26.9089C28.7917 30.349 30.3232 28.8175 30.3232 26.935V25.6139C30.75 25.4226 31.1125 25.1121 31.367 24.7198C31.6216 24.3274 31.7573 23.8698 31.758 23.4021V20.6789C31.758 19.6911 31.1632 18.8406 30.3139 18.463ZM11.1097 19.8231V24.2586C11.1097 24.5035 10.9106 24.703 10.6654 24.703C10.3206 24.7026 9.99001 24.5655 9.74621 24.3217C9.5024 24.0779 9.36526 23.7473 9.36486 23.4025V20.6793C9.36526 20.3345 9.5024 20.0039 9.74621 19.7601C9.99001 19.5163 10.3206 19.3792 10.6654 19.3788C10.9106 19.3788 11.1097 19.5783 11.1097 19.8231ZM24.1777 29.9073C24.1498 30.0364 24.0786 30.1521 23.9759 30.2353C23.8731 30.3184 23.7451 30.364 23.613 30.3644H21.8655C21.7117 30.3644 21.5674 30.3044 21.4571 30.1941C21.4034 30.1409 21.3609 30.0775 21.3319 30.0076C21.303 29.9378 21.2882 29.8629 21.2884 29.7873C21.2888 29.6344 21.3497 29.4878 21.4579 29.3797C21.566 29.2717 21.7126 29.2108 21.8655 29.2105H23.613C23.7667 29.2105 23.9111 29.2701 24.021 29.3804C24.1297 29.4888 24.1897 29.6335 24.1897 29.7873C24.1901 29.8285 24.1856 29.8698 24.1777 29.9073ZM30.633 23.4025C30.6326 23.7473 30.4954 24.0779 30.2516 24.3217C30.0078 24.5655 29.6773 24.7026 29.3325 24.703C29.2147 24.7029 29.1017 24.6561 29.0184 24.5728C28.9351 24.4894 28.8882 24.3765 28.8881 24.2586V19.8231C28.8881 19.5783 29.0872 19.3788 29.3325 19.3788C29.6773 19.3792 30.0078 19.5163 30.2516 19.7601C30.4954 20.0039 30.6326 20.3345 30.633 20.6793V23.4025Z" fill="#33251E" stroke="#33251E" stroke-width="0.2"/>
<path d="M23.6409 23.5963C24.2728 23.5956 24.8787 23.3442 25.3255 22.8974C25.7724 22.4506 26.0237 21.8447 26.0244 21.2128V16.3562C26.0244 15.7209 25.7762 15.1224 25.3254 14.6717C24.8747 14.2209 24.2765 13.9727 23.6409 13.9727H16.3562C15.7242 13.9734 15.1184 14.2247 14.6715 14.6715C14.2247 15.1184 13.9734 15.7242 13.9727 16.3562V21.2128C13.9734 21.8447 14.2247 22.4506 14.6715 22.8974C15.1184 23.3442 15.7242 23.5956 16.3562 23.5963H16.4008V24.8548C16.4 25.0085 16.4297 25.1608 16.488 25.3029C16.5463 25.4451 16.6322 25.5743 16.7407 25.6832C16.8491 25.7921 16.978 25.8784 17.12 25.9373C17.2619 25.9962 17.4141 26.0264 17.5678 26.0263C17.7214 26.0266 17.8734 25.996 18.0149 25.9362C18.1564 25.8765 18.2844 25.7889 18.3913 25.6787L20.4849 23.5963H23.6409ZM19.8568 22.6348L17.591 24.8882C17.5809 24.8987 17.5734 24.9065 17.552 24.8972C17.5262 24.8867 17.5262 24.8698 17.5262 24.8548V23.0338C17.5262 22.8846 17.4669 22.7415 17.3614 22.636C17.2559 22.5305 17.1128 22.4713 16.9637 22.4713H16.3565C16.0229 22.4709 15.703 22.3382 15.4671 22.1022C15.2311 21.8663 15.0984 21.5464 15.098 21.2128V16.3562C15.0984 16.0225 15.2311 15.7026 15.4671 15.4667C15.703 15.2308 16.0229 15.0981 16.3565 15.0977H23.6413C23.9765 15.0977 24.2919 15.2289 24.5304 15.467C24.7689 15.7055 24.8998 16.0213 24.8998 16.3562V21.2128C24.8994 21.5464 24.7667 21.8663 24.5307 22.1022C24.2948 22.3382 23.9749 22.4709 23.6413 22.4713H20.2535C20.1047 22.4713 19.9622 22.5302 19.8568 22.6348Z" fill="#33251E" stroke="#33251E" stroke-width="0.2"/>
<path d="M17.2674 18.0449C16.8099 18.0449 16.4375 18.4177 16.4375 18.8748C16.4375 19.3319 16.8102 19.7047 17.2674 19.7047C17.7252 19.7047 18.098 19.3319 18.098 18.8748C18.098 18.4177 17.7256 18.0449 17.2674 18.0449ZM19.9996 18.0449C19.5421 18.0449 19.1697 18.4177 19.1697 18.8748C19.1697 19.3319 19.5425 19.7047 19.9996 19.7047C20.4579 19.7047 20.8303 19.3319 20.8303 18.8748C20.8303 18.4177 20.4579 18.0449 19.9996 18.0449ZM22.7319 18.0449C22.2744 18.0449 21.902 18.4177 21.902 18.8748C21.902 19.3319 22.2747 19.7047 22.7319 19.7047C23.1897 19.7047 23.5625 19.3319 23.5625 18.8748C23.5625 18.4177 23.1897 18.0449 22.7319 18.0449Z" fill="#33251E" stroke="#33251E" stroke-width="0.2"/>
</g>
<defs>
<clipPath id="clip0_214_27485">
<rect width="24" height="24" fill="white" transform="translate(8 8)"/>
</clipPath>
</defs>
</svg>
